<?xml version="1.0" encoding="utf-8"?>
<!-- Svg Vector Icons : http://www.onlinewebfonts.com/icon -->
<!DOCTYPE svg PUBLIC "-//W3C//DTD SVG 1.1//EN" "http://www.w3.org/Graphics/SVG/1.1/DTD/svg11.dtd">
<svg version="1.1" xmlns="http://www.w3.org/2000/svg" xmlns:xlink="http://www.w3.org/1999/xlink" x="0px" y="0px" viewBox="0 0 1000 1000" enable-background="new 0 0 1000 1000" xml:space="preserve">
<metadata> Svg Vector Icons : http://www.onlinewebfonts.com/icon </metadata>
<g><path d="M432.5,855C199.5,855,10,665.5,10,432.5C10,199.6,199.5,10,432.5,10C665.5,10,855,199.6,855,432.5C855,665.5,665.5,855,432.5,855 M432.5,114C256.9,114,114,256.9,114,432.5C114,608.2,256.9,751,432.5,751C608.1,751,751,608.2,751,432.5C751,256.9,608.1,114,432.5,114 M926,990c-16.4,0-32.8-6.3-45.3-18.7L660,750.5c-25-25-25-65.5,0-90.5c25-25,65.5-25,90.5,0l220.7,220.7c25,25,25,65.5,0,90.5C958.8,983.7,942.4,990,926,990"/></g>
</svg>